<svg width="33" height="32" viewBox="0 0 33 32" fill="none" xmlns="http://www.w3.org/2000/svg">
<path d="M20.1376 7.79345C19.8484 8.08852 19.6864 8.48524 19.6864 8.89843C19.6864 9.31161 19.8484 9.70833 20.1376 10.0034L22.6633 12.5291C22.9584 12.8183 23.3551 12.9803 23.7683 12.9803C24.1814 12.9803 24.5782 12.8183 24.8732 12.5291L30.8243 6.57798C31.6181 8.33203 31.8584 10.2863 31.5133 12.1804C31.1682 14.0745 30.254 15.8185 28.8926 17.1799C27.5312 18.5412 25.7873 19.4554 23.8932 19.8005C21.9991 20.1456 20.0448 19.9053 18.2907 19.1115L7.38307 30.0192C6.75509 30.6472 5.90336 31 5.01527 31C4.12717 31 3.27544 30.6472 2.64746 30.0192C2.01948 29.3912 1.66669 28.5395 1.66669 27.6514C1.66669 26.7633 2.01948 25.9116 2.64746 25.2836L13.5551 14.3759C12.7614 12.6219 12.5211 10.6676 12.8662 8.77349C13.2113 6.87939 14.1254 5.13544 15.4868 3.77406C16.8482 2.41268 18.5922 1.49852 20.4863 1.15341C22.3804 0.808299 24.3347 1.04863 26.0887 1.84237L20.1534 7.77767L20.1376 7.79345Z" stroke="#3C64B1" stroke-width="2" stroke-linecap="round" stroke-linejoin="round"/>
</svg>
